<svg width="295" height="48" viewBox="0 0 295 48" fill="none" xmlns="http://www.w3.org/2000/svg">
<path d="M17.5664 31.7266H8.32031L6.5625 37H0.955078L10.4824 11.4062H15.3691L24.9492 37H19.3418L17.5664 31.7266ZM9.74414 27.4551H16.1426L12.9258 17.875L9.74414 27.4551ZM30.8379 17.9805L30.9961 20.1777C32.3555 18.4785 34.1777 17.6289 36.4629 17.6289C38.4785 17.6289 39.9785 18.2207 40.9629 19.4043C41.9473 20.5879 42.4512 22.3574 42.4746 24.7129V37H37.3945V24.8359C37.3945 23.7578 37.1602 22.9785 36.6914 22.498C36.2227 22.0059 35.4434 21.7598 34.3535 21.7598C32.9238 21.7598 31.8516 22.3691 31.1367 23.5879V37H26.0566V17.9805H30.8379ZM51.7031 37H46.6055V17.9805H51.7031V37ZM46.3066 13.0586C46.3066 12.2969 46.5586 11.6699 47.0625 11.1777C47.5781 10.6855 48.2754 10.4395 49.1543 10.4395C50.0215 10.4395 50.7129 10.6855 51.2285 11.1777C51.7441 11.6699 52.002 12.2969 52.002 13.0586C52.002 13.832 51.7383 14.4648 51.2109 14.957C50.6953 15.4492 50.0098 15.6953 49.1543 15.6953C48.2988 15.6953 47.6074 15.4492 47.0801 14.957C46.5645 14.4648 46.3066 13.832 46.3066 13.0586ZM60.668 17.9805L60.8262 20.1074C62.1738 18.4551 63.9961 17.6289 66.293 17.6289C68.7422 17.6289 70.4238 18.5957 71.3379 20.5293C72.6738 18.5957 74.5781 17.6289 77.0508 17.6289C79.1133 17.6289 80.6484 18.2324 81.6562 19.4395C82.6641 20.6348 83.168 22.4395 83.168 24.8535V37H78.0703V24.8711C78.0703 23.793 77.8594 23.0078 77.4375 22.5156C77.0156 22.0117 76.2715 21.7598 75.2051 21.7598C73.6816 21.7598 72.627 22.4863 72.041 23.9395L72.0586 37H66.9785V24.8887C66.9785 23.7871 66.7617 22.9902 66.3281 22.498C65.8945 22.0059 65.1562 21.7598 64.1133 21.7598C62.6719 21.7598 61.6289 22.3574 60.9844 23.5527V37H55.9043V17.9805H60.668ZM98.1094 37C97.875 36.543 97.7051 35.9746 97.5996 35.2949C96.3691 36.666 94.7695 37.3516 92.8008 37.3516C90.9375 37.3516 89.3906 36.8125 88.1602 35.7344C86.9414 34.6562 86.332 33.2969 86.332 31.6562C86.332 29.6406 87.0762 28.0938 88.5645 27.0156C90.0645 25.9375 92.2266 25.3926 95.0508 25.3809H97.3887V24.291C97.3887 23.4121 97.1602 22.709 96.7031 22.1816C96.2578 21.6543 95.5488 21.3906 94.5762 21.3906C93.7207 21.3906 93.0469 21.5957 92.5547 22.0059C92.0742 22.416 91.834 22.9785 91.834 23.6934H86.7539C86.7539 22.5918 87.0938 21.5723 87.7734 20.6348C88.4531 19.6973 89.4141 18.9648 90.6562 18.4375C91.8984 17.8984 93.293 17.6289 94.8398 17.6289C97.1836 17.6289 99.041 18.2207 100.412 19.4043C101.795 20.5762 102.486 22.2285 102.486 24.3613V32.6055C102.498 34.4102 102.75 35.7754 103.242 36.7012V37H98.1094ZM93.9082 33.4668C94.6582 33.4668 95.3496 33.3027 95.9824 32.9746C96.6152 32.6348 97.084 32.1836 97.3887 31.6211V28.3516H95.4902C92.9473 28.3516 91.5938 29.2305 91.4297 30.9883L91.4121 31.2871C91.4121 31.9199 91.6348 32.4414 92.0801 32.8516C92.5254 33.2617 93.1348 33.4668 93.9082 33.4668ZM111.75 37H106.652V10H111.75V37Z" fill="#F8F8F8"/>
<path d="M158.431 39.3309C158.431 39.3309 158.937 33.1236 156.97 29.6317C157.654 29.3169 163.872 27.7218 164.158 27.2207C163.458 24.954 157.938 24.1669 156.125 22.6243C153.955 20.7721 153.005 19.1193 150.749 17.9308C149.443 17.2434 145.846 17.553 145.846 17.553C142.54 14.3103 140.612 15.1368 139.665 14.5255C138.778 13.9562 136.194 10.7607 135.047 10.8893C133.741 11.0362 133.552 12.3506 133.513 13.3711C132.542 14.0978 131.477 15.0003 131.603 15.3493C131.603 15.3493 132.613 14.7432 133.479 14.3576C133.463 14.473 133.442 14.5543 133.397 14.5858C133.667 15.8136 134.292 16.2964 134.62 17.4061C134.552 18.7467 132.091 16.6951 131.59 17.8337C131.59 17.8337 133.806 22.5823 139.484 28.5298C144.13 32.1031 140.52 47.4114 140.52 47.4114C140.52 47.4114 150.133 42.2037 153.635 45.8766C157.137 49.5495 160.343 47.3431 160.343 47.3431C158.851 46.7974 158.431 39.3309 158.431 39.3309Z" fill="#F8F8F8"/>
<path d="M160.727 47.3379L160.341 47.3405C160.462 47.3877 160.587 47.3982 160.727 47.3379Z" fill="#F8F8F8"/>
<path d="M169.833 19.1534C167.666 6.6103 155.692 -1.82958 143.151 0.340076C130.608 2.50973 122.169 14.4782 124.341 27.0187C125.582 34.1967 130.212 40.4406 136.729 43.7174L137.87 41.4428C132.075 38.5255 127.953 32.9715 126.849 26.5858C124.918 15.428 132.427 4.77908 143.584 2.85079C154.742 0.922499 165.394 8.43103 167.322 19.5863C168.571 26.8036 165.842 34.2019 160.199 38.8901L161.828 40.8499C168.169 35.5819 171.234 27.2679 169.833 19.1534Z" fill="#F8F8F8"/>
<path d="M204.273 24.7832C204.273 27.1738 203.887 29.2539 203.113 31.0234C202.34 32.7812 201.268 34.1934 199.896 35.2598L204.15 38.5996L200.793 41.5703L195.344 37.1934C194.723 37.2988 194.078 37.3516 193.41 37.3516C191.289 37.3516 189.396 36.8418 187.732 35.8223C186.068 34.8027 184.779 33.3496 183.865 31.4629C182.951 29.5645 182.488 27.3848 182.477 24.9238V23.6582C182.477 21.1387 182.928 18.9238 183.83 17.0137C184.744 15.0918 186.027 13.6211 187.68 12.6016C189.344 11.5703 191.242 11.0547 193.375 11.0547C195.508 11.0547 197.4 11.5703 199.053 12.6016C200.717 13.6211 202 15.0918 202.902 17.0137C203.816 18.9238 204.273 21.1328 204.273 23.6406V24.7832ZM198.93 23.623C198.93 20.9395 198.449 18.9004 197.488 17.5059C196.527 16.1113 195.156 15.4141 193.375 15.4141C191.605 15.4141 190.24 16.1055 189.279 17.4883C188.318 18.8594 187.832 20.875 187.82 23.5352V24.7832C187.82 27.3965 188.301 29.4238 189.262 30.8652C190.223 32.3066 191.605 33.0273 193.41 33.0273C195.18 33.0273 196.539 32.3359 197.488 30.9531C198.438 29.5586 198.918 27.5312 198.93 24.8711V23.623ZM219.197 35.0664C217.943 36.5898 216.209 37.3516 213.994 37.3516C211.955 37.3516 210.396 36.7656 209.318 35.5938C208.252 34.4219 207.707 32.7051 207.684 30.4434V17.9805H212.764V30.2676C212.764 32.248 213.666 33.2383 215.471 33.2383C217.193 33.2383 218.377 32.6406 219.021 31.4453V17.9805H224.119V37H219.338L219.197 35.0664ZM236.705 37.3516C233.916 37.3516 231.643 36.4961 229.885 34.7852C228.139 33.0742 227.266 30.7949 227.266 27.9473V27.4551C227.266 25.5449 227.635 23.8398 228.373 22.3398C229.111 20.8281 230.154 19.668 231.502 18.8594C232.861 18.0391 234.408 17.6289 236.143 17.6289C238.744 17.6289 240.789 18.4492 242.277 20.0898C243.777 21.7305 244.527 24.0566 244.527 27.0684V29.1426H232.416C232.58 30.3848 233.072 31.3809 233.893 32.1309C234.725 32.8809 235.773 33.2559 237.039 33.2559C238.996 33.2559 240.525 32.5469 241.627 31.1289L244.123 33.9238C243.361 35.002 242.33 35.8457 241.029 36.4551C239.729 37.0527 238.287 37.3516 236.705 37.3516ZM236.125 21.7422C235.117 21.7422 234.297 22.082 233.664 22.7617C233.043 23.4414 232.645 24.4141 232.469 25.6797H239.535V25.2754C239.512 24.1504 239.207 23.2832 238.621 22.6738C238.035 22.0527 237.203 21.7422 236.125 21.7422ZM257.729 31.7441C257.729 31.123 257.418 30.6367 256.797 30.2852C256.188 29.9219 255.203 29.5996 253.844 29.3184C249.32 28.3691 247.059 26.4473 247.059 23.5527C247.059 21.8652 247.756 20.459 249.15 19.334C250.557 18.1973 252.391 17.6289 254.652 17.6289C257.066 17.6289 258.994 18.1973 260.436 19.334C261.889 20.4707 262.615 21.9473 262.615 23.7637H257.535C257.535 23.0371 257.301 22.4395 256.832 21.9707C256.363 21.4902 255.631 21.25 254.635 21.25C253.779 21.25 253.117 21.4434 252.648 21.8301C252.18 22.2168 251.945 22.709 251.945 23.3066C251.945 23.8691 252.209 24.3262 252.736 24.6777C253.275 25.0176 254.178 25.3164 255.443 25.5742C256.709 25.8203 257.775 26.1016 258.643 26.418C261.326 27.4023 262.668 29.1074 262.668 31.5332C262.668 33.2676 261.924 34.6738 260.436 35.752C258.947 36.8184 257.025 37.3516 254.67 37.3516C253.076 37.3516 251.658 37.0703 250.416 36.5078C249.186 35.9336 248.219 35.1543 247.516 34.1699C246.812 33.1738 246.461 32.1016 246.461 30.9531H251.277C251.324 31.8555 251.658 32.5469 252.279 33.0273C252.9 33.5078 253.732 33.748 254.775 33.748C255.748 33.748 256.48 33.5664 256.973 33.2031C257.477 32.8281 257.729 32.3418 257.729 31.7441ZM272.037 13.3047V17.9805H275.289V21.707H272.037V31.1992C272.037 31.9023 272.172 32.4062 272.441 32.7109C272.711 33.0156 273.227 33.168 273.988 33.168C274.551 33.168 275.049 33.127 275.482 33.0449V36.8945C274.486 37.1992 273.461 37.3516 272.406 37.3516C268.844 37.3516 267.027 35.5527 266.957 31.9551V21.707H264.18V17.9805H266.957V13.3047H272.037Z" fill="#F8F8F8"/>
</svg>
